<svg id="Layer_1" data-name="Layer 1" xmlns="http://www.w3.org/2000/svg" viewBox="0 0 332 376"><defs><style>.cls-1{fill:#f9f4f0;}.cls-2{fill:#837472;}.cls-3{fill:#a89493;}.cls-4{font-size:46.69px;fill:#ee8578;}.cls-4,.cls-6{font-family:Superclarendon-Regular, Superclarendon;}.cls-5{letter-spacing:-0.03em;}.cls-6{font-size:18.99px;fill:#c6bbbc;}</style></defs><title>logo</title><rect class="cls-1" width="332" height="376"/><path class="cls-2" d="M111.17,155.63c-4.49-4.23-8.92-8.51-13.49-12.65-1.46-1.32-.33-1.85.45-2.59,14.91-14.15,30-28.15,44.68-42.49,7.45-7.27,15.06-14.38,22.47-21.68,1.22-1.21,1.91-1.38,3.26-.07,6.16,6,12.59,11.74,18.66,17.82,15.84,15.86,32.49,31,48.67,46.49,1.12,1.07,1.25,1.64,0,2.77q-33.87,32-67.63,64.09c-.73.69-1.23,1.44-2.4.33Q139,182,112.1,156.52a5.49,5.49,0,0,1,2.33-.92c.81-.24,1.75-.74,2.42-.54,1,.31-.59,1.41.49,2.23,2.15-3,5.37-4.59,8.87-5.75.59-.2,1.61-.95,1-1.36-2.07-1.38,0-1.91.55-2.35a11.71,11.71,0,0,1,4.67-1.88c.84-.21,2.08.07,2.28.71.64,2-.29,4.23.33,6.33,0,.16-.22.38-.28.59-.35,1.2-1.69,2-1.59,3.38l-.59.19c0,.06.11.17.12.16.17-.09.34-.2.51-.31,1.14.11,1.2-1.25,2.07-1.44.58.42-.16,1.25.81,1.62a17.68,17.68,0,0,1,4.48-4.44c-1.29-.29-2.23.66-3.31,0,.72-2.74,3.75-3.12,6-4.81-2.24-.2-3.76,1-5.64.86.69-1.79,3.59-1.74,3.28-4-1-.42-2.13,1.33-2.71.19-.47-.93.55-2,1.44-2.81a15.62,15.62,0,0,0,2.94-2.85c1-1.48,2.62-2.7,2.8-4.82l-2.3.7,0,0c1.65-3.13,2.21-3.14,4.5-.52a37.11,37.11,0,0,1,4.84,6.22c.66,1.19,1.36,1,2.09.11.88-1.13,1.67-2.33,2.59-3.42,1.7-2,2.68-4.66,5.12-5.93a9,9,0,0,0,3.87-3.94,41.83,41.83,0,0,1,4.67-7.63c-1.5,4.7-4.57,8.66-6.83,13-.16.31-.55.85-.83.5-1.2-1.48-1.66-.07-2.13.51-2.15,2.7-4,5.61-6.38,8.15-1.53,1.66.79,2.84.09,4.29-.08.16.78.07,1.22-.05,1.48-.42,2.4-1.59,3.6-2.38h0a4.46,4.46,0,0,1-.35,1.49,9,9,0,0,0-1.88,5.88c.08.83-.6,2,.25,2.41s1.55-.72,2.22-1.31a5.17,5.17,0,0,0,1.27-1.29c1.57-3.18,4.39-5.33,6.86-7.78a8.92,8.92,0,0,0,1.89-2.5,5.71,5.71,0,0,1,3.07-2.91,3.84,3.84,0,0,0,2.51-3.14c.22-1.15.67-2.28.84-3.44.27-1.79.58-3.62-.45-5.45a11.73,11.73,0,0,1-1.63,1,1.38,1.38,0,0,1-1.09-.11c-.43-.3,0-.63.18-.93,2-3.13,1.72-6.8,2.66-10.18,0-.06-.18-.18-.32-.31-1.35.68-1.53,2.66-3.38,2.78.61-1.48,1.95-2.46,2.88-3.72a1,1,0,0,1,1.73-.1,27.5,27.5,0,0,1,4.12,5c1.47,2.63,1.42,6.53,5.68,7.25.11,0,.19.22.3.33a25.32,25.32,0,0,1,5.33,6.95,71.46,71.46,0,0,0,7.81,13.08c2.66,3.55,4.19,3.62,7.07,0,.1-.11.16-.25.25-.37,2-2.76,2-2.76,4.22-.25.6.68,1.25,1.32,1.85,2,2.39,2.7,3.4,6.14,5.35,9.06.66-.06,1-.55,1.32-.9,4.7-4.45,9.35-9,14.12-13.33,1.29-1.18,1.19-1.83,0-3-16.44-15.73-33.26-31.1-49.32-47.17-5.21-5.21-10.75-10.13-16-15.3-1.48-1.45-2.27-1.33-3.68,0q-13.7,13.39-27.56,26.62-18.66,17.83-37.45,35.52c-1.59,1.49-1.48,2.3.07,3.63,3.52,3,6.91,6.21,10.32,9.35.75.68,1.39,1.07,2.42.35,3.75-2.59,8.21-3.84,12.31-5.77l0,0c-2,2.91-5.15,4.36-8.41,5.45A24.35,24.35,0,0,0,111.17,155.63Zm75.92-20.89c-.72-1.1-1.46-2.21-.35-3.48s.88-2.49-.9-3.39c-.21,1-.14,2.14-1.36,2.65a1.12,1.12,0,0,0-.56,1.53c.86,1.9.11,3.2-1.53,4.3-.35.23-1,.54-.59,1.25a23.59,23.59,0,0,1,2.84-.94c1.2-.25,2.29-.5,2.47-1.89l.59-.18-.12-.17Zm-5.63,8.9h0c-.12-.47.19-1-.26-1.45-2.94,2-2.88,2-4.21,4.92a21.79,21.79,0,0,1-2.12,3.42,4,4,0,0,0-.91,2.89c-.2.15-.58.25-.17.56l.17-.56c1.28-1.94,3.86-2.39,5.16-4.22.73.38-.22.89.3,1.21C182,148.91,182.67,146.73,181.46,143.64ZM187,168c1.57,0,1.68.05,2-.4,2.69-4,7.94-4.68,11.4-7.71a1.25,1.25,0,0,1,.66-.19c1.93-.15,2.91-1.6,4.14-2.7.37-.34.93-.85.21-1.26-1.3-.75-.52-1.38-.09-2.18a11.93,11.93,0,0,1,3-3.93c1-.8,1.06-1.83.62-3.18a26.13,26.13,0,0,1-4.53,4.3,38.8,38.8,0,0,0-4.23,3.47c-.51.44-1.27,1.09-.91,1.66,1,1.6-.46,1.91-1.3,2.17-2.58.82-4.63,2.41-6.87,3.74-.62.37-1.38.84-1.31,1.45C190,165.41,188.38,166.59,187,168Zm20.49-9.46c-5,1.4-5.92,2.27-4.71,5.31C203,160.71,206.92,161.21,207.47,158.51Z"/><path class="cls-3" d="M170.69,120.08a41.83,41.83,0,0,0-4.67,7.63,9,9,0,0,1-3.87,3.94c-2.44,1.27-3.42,3.94-5.12,5.93-.92,1.09-1.71,2.29-2.59,3.42-.73.93-1.43,1.08-2.09-.11a37.11,37.11,0,0,0-4.84-6.22c-2.29-2.62-2.85-2.61-4.5.52l-.93.89a3.58,3.58,0,0,0-2.35,1.77,1.94,1.94,0,0,0-.67.18c-1.5,1.09-2.61,2.05-5,1-1.64-.68.63,2.23-1,2.92-.37.16,0,.64.46.7a.89.89,0,0,0,.45-.07c2.42-1.05,4.74-2.21,5.85-4.72a2.06,2.06,0,0,0,2.34-1.79.84.84,0,0,0,1-.88l2.3-.7c-.18,2.12-1.84,3.34-2.8,4.82a15.62,15.62,0,0,1-2.94,2.85c-.89.79-1.91,1.88-1.44,2.81.58,1.14,1.67-.61,2.71-.19.31,2.25-2.59,2.2-3.28,4,1.88.1,3.4-1.06,5.64-.86-2.25,1.69-5.28,2.07-6,4.81,1.08.65,2-.3,3.31,0a17.68,17.68,0,0,0-4.48,4.44c-1-.37-.23-1.2-.81-1.62-.87.19-.93,1.55-2.07,1.44l0,0c-.1-1.39,1.24-2.18,1.59-3.38.06-.21.33-.43.28-.59-.62-2.1.31-4.29-.33-6.33-.2-.64-1.44-.92-2.28-.71a11.71,11.71,0,0,0-4.67,1.88c-.56.44-2.62,1-.55,2.35.63.41-.39,1.16-1,1.36-3.5,1.16-6.72,2.71-8.87,5.75-1.08-.82.5-1.92-.49-2.23-.67-.2-1.61.3-2.42.54a5.49,5.49,0,0,0-2.33.92,1.52,1.52,0,0,1-.93-.89,24.35,24.35,0,0,1,5.65-2.52c3.26-1.09,6.4-2.54,8.41-5.45l.46-.44c.12-.16.24-.32.35-.49l-.17-.12-.21.58-.47.44c-4.1,1.93-8.56,3.18-12.31,5.77-1,.72-1.67.33-2.42-.35-3.41-3.14-6.8-6.32-10.32-9.35-1.55-1.33-1.66-2.14-.07-3.63q18.81-17.67,37.45-35.52,13.86-13.23,27.56-26.62c1.41-1.37,2.2-1.49,3.68,0,5.26,5.17,10.8,10.09,16,15.3,16.06,16.07,32.88,31.44,49.32,47.17,1.21,1.16,1.31,1.81,0,3-4.77,4.38-9.42,8.88-14.12,13.33-.37.35-.66.84-1.32.9-1.95-2.92-3-6.36-5.35-9.06-.6-.68-1.25-1.32-1.85-2-2.19-2.51-2.18-2.51-4.22.25-.09.12-.15.26-.25.37-2.88,3.6-4.41,3.53-7.07,0A71.46,71.46,0,0,1,192.12,134a25.32,25.32,0,0,0-5.33-6.95c-.11-.11-.19-.31-.3-.33-4.26-.72-4.21-4.62-5.68-7.25a27.5,27.5,0,0,0-4.12-5,1,1,0,0,0-1.73.1c-.93,1.26-2.27,2.24-2.88,3.72l0,0a2.65,2.65,0,0,0-1.42,1.8Zm-39.51,21.34c-1.59,1.11-3.32,2.14-4,4.07A9.82,9.82,0,0,0,131.18,141.42Z"/><path class="cls-3" d="M159.43,144.09c-1.2.79-2.12,2-3.6,2.38-.44.12-1.3.21-1.22.05.7-1.45-1.62-2.63-.09-4.29,2.34-2.54,4.23-5.45,6.38-8.15.47-.58.93-2,2.13-.51.28.35.67-.19.83-.5,2.26-4.33,5.33-8.29,6.83-13h0c1.19-.08,1.47-.83,1.42-1.8l0,0c1.85-.12,2-2.1,3.38-2.78.14.13.34.25.32.31-.94,3.38-.64,7-2.66,10.18-.19.3-.61.63-.18.93a1.38,1.38,0,0,0,1.09.11,11.73,11.73,0,0,0,1.63-1c1,1.83.72,3.66.45,5.45-.17,1.16-.62,2.29-.84,3.44a3.84,3.84,0,0,1-2.51,3.14,5.71,5.71,0,0,0-3.07,2.91,8.92,8.92,0,0,1-1.89,2.5c-2.47,2.45-5.29,4.6-6.86,7.78a5.17,5.17,0,0,1-1.27,1.29c-.67.59-1.36,1.71-2.22,1.31s-.17-1.58-.25-2.41a9,9,0,0,1,1.88-5.88,4.46,4.46,0,0,0,.35-1.49l.11-.19Z"/><path class="cls-3" d="M187,168c1.4-1.38,3-2.56,2.74-4.76-.07-.61.69-1.08,1.31-1.45,2.24-1.33,4.29-2.92,6.87-3.74.84-.26,2.29-.57,1.3-2.17-.36-.57.4-1.22.91-1.66a38.8,38.8,0,0,1,4.23-3.47,26.13,26.13,0,0,0,4.53-4.3c.44,1.35.39,2.38-.62,3.18a11.93,11.93,0,0,0-3,3.93c-.43.8-1.21,1.43.09,2.18.72.41.16.92-.21,1.26-1.23,1.1-2.21,2.55-4.14,2.7a1.25,1.25,0,0,0-.66.19c-3.46,3-8.71,3.66-11.4,7.71C188.66,168,188.55,168,187,168Z"/><path class="cls-3" d="M174,153.43a4,4,0,0,1,.91-2.89,21.79,21.79,0,0,0,2.12-3.42c1.33-2.91,1.27-2.93,4.21-4.92.45.43.14,1,.26,1.45l-.11.17.1-.18c1.21,3.09.56,5.27-2,6.78-.52-.32.43-.83-.3-1.21-1.3,1.83-3.88,2.28-5.16,4.22Z"/><path class="cls-3" d="M187.11,134.77c-.18,1.39-1.27,1.64-2.47,1.89a23.59,23.59,0,0,0-2.84.94c-.39-.71.24-1,.59-1.25,1.64-1.1,2.39-2.4,1.53-4.3a1.12,1.12,0,0,1,.56-1.53c1.22-.51,1.15-1.6,1.36-2.65,1.78.9,2.13,2,.9,3.39s-.37,2.38.35,3.48Z"/><path class="cls-3" d="M207.47,158.51c-.55,2.7-4.43,2.2-4.71,5.31C201.55,160.78,202.43,159.91,207.47,158.51Z"/><path class="cls-3" d="M187.09,134.74l.49-.32.12.17-.59.18Z"/><path class="cls-3" d="M133.19,157c-.17.11-.34.22-.51.31,0,0-.08-.1-.12-.16l.59-.19Z"/><path class="cls-3" d="M174,153.43l-.17.56c-.41-.31,0-.41.17-.56Z"/><path class="cls-2" d="M139.76,137.89c-1.11,2.51-3.43,3.67-5.85,4.72a.89.89,0,0,1-.45.07c-.47-.06-.83-.54-.46-.7,1.66-.69-.61-3.6,1-2.92,2.42,1,3.53.06,5-1a1.94,1.94,0,0,1,.67-.18Z"/><path class="cls-2" d="M131.18,141.42a9.82,9.82,0,0,1-4,4.07C127.86,143.56,129.59,142.53,131.18,141.42Z"/><path class="cls-2" d="M139.73,137.85a3.58,3.58,0,0,1,2.35-1.77l0,0a2.06,2.06,0,0,1-2.34,1.79Z"/><path class="cls-2" d="M172.1,118.29c.05,1-.23,1.72-1.42,1.8A2.65,2.65,0,0,1,172.1,118.29Z"/><path class="cls-2" d="M142.08,136.08l.93-.89,0,0a.84.84,0,0,1-1,.88Z"/><path class="cls-2" d="M125.66,147.19l.21-.58.17.12c-.11.17-.23.33-.35.49Z"/><path class="cls-2" d="M125.69,147.22l-.46.44,0,0,.47-.44Z"/><path class="cls-2" d="M159.43,144.09l.11-.19-.11.19Z"/><path class="cls-2" d="M181.46,143.64l-.1.18.11-.17Z"/><text class="cls-4" transform="translate(77.89 251.97) scale(0.87 1)">E<tspan class="cls-5" x="36" y="0">v</tspan><tspan x="67.05" y="0">erest</tspan></text><text class="cls-6" transform="translate(117.91 285.1) scale(0.84 1)">At the top</text></svg>